<svg width="141" height="61" viewBox="0 0 141 61" fill="none" xmlns="http://www.w3.org/2000/svg">
<path fill-rule="evenodd" clip-rule="evenodd" d="M74.4411 39.8446V28.391L59.4367 23.2251L67.3143 16.435L56.9878 8.30679L54.0577 13.2812L54.1716 8.50324L41.0923 12.2072L41.4252 18.445L43.651 17.9304L45.9563 39.9307L55.1791 38.7285L55.167 31.3854L74.4411 39.8446Z" fill="#130400"/>
<path fill-rule="evenodd" clip-rule="evenodd" d="M43.554 13.8086L51.503 11.709L51.9875 18.9802L57.8421 11.6819L63.5636 16.5154L55.5665 23.9981L72.0308 29.7796V36.4353L52.9027 27.9469L52.9364 36.8395L47.9889 37.4402L45.8769 15.1823L43.6511 15.6976L43.554 13.8086Z" fill="white"/>
<path fill-rule="evenodd" clip-rule="evenodd" d="M103.824 9.40573H95.159L94.916 10.6684H85.7999L81.5415 33.7761L91.9329 35.2302L92.508 31.9078L95.2232 36.3598L96.8788 33.5228L97.4836 38.179L109.269 40.0239L103.824 9.40573Z" fill="#130400"/>
<path fill-rule="evenodd" clip-rule="evenodd" d="M97.4378 11.5374H101.848L106.315 37.2808L99.804 36.3989L98.0739 26.2159L95.6258 31.8345L91.9545 24.8145H91.916L90.4634 32.9462L84.3521 32.0032L87.9913 12.7289H94.1651L95.7036 20.2059L97.4378 11.5374Z" fill="white"/>
<path fill-rule="evenodd" clip-rule="evenodd" d="M114.856 11.5083L127.885 14.0521L128.858 18.3212L129.912 14.4699L141 16.8571L130.349 45.3329L122.177 43.051L122.113 40.1976L114.27 39.2239L116.915 18.3226L114.951 17.9347L114.856 11.5083Z" fill="#130400"/>
<path fill-rule="evenodd" clip-rule="evenodd" d="M117.168 14.1844L125.668 15.6997L128.525 27.7262L131.453 16.9453L137.92 18.2151L128.815 42.6851L124.293 41.4858L123.899 26.6963L121.624 38.1057L116.689 37.4096L118.902 16.6948L117.042 16.2535L117.168 14.1844Z" fill="white"/>
<path fill-rule="evenodd" clip-rule="evenodd" d="M113.598 35.9285C110.783 36.8694 107.789 36.7591 105.384 35.6253C103.159 34.5747 101.601 32.7626 100.999 30.5206C99.7976 26.0486 103.126 20.9475 108.422 19.1496C111.266 18.1994 114.283 18.3126 116.711 19.4564C118.917 20.4956 120.454 22.2671 121.039 24.4451C122.266 28.9811 118.931 34.1327 113.598 35.9285Z" fill="#130400"/>
<path fill-rule="evenodd" clip-rule="evenodd" d="M118.979 24.8557C118.013 21.2649 113.705 19.4699 109.277 20.9503C104.986 22.408 102.173 26.5276 103.138 30.1191C104.131 33.8231 108.406 35.6167 112.834 34.137C117.159 32.68 119.974 28.5298 118.979 24.8557Z" fill="white"/>
<path fill-rule="evenodd" clip-rule="evenodd" d="M115.763 25.4913C115.672 27.47 113.733 28.9611 111.361 28.8757C109.027 28.7917 107.23 27.1654 107.321 25.1874C107.405 23.329 109.344 21.8372 111.715 21.9226C114.05 22.0066 115.848 23.6329 115.763 25.4913Z" fill="#130400"/>
<path fill-rule="evenodd" clip-rule="evenodd" d="M112.745 22.0109C111.326 21.9596 110.134 22.8266 110.084 23.9476C110.033 25.0679 111.141 26.0181 112.559 26.0686C113.979 26.1198 115.171 25.2529 115.221 24.1326C115.273 23.0116 114.164 22.0621 112.745 22.0109Z" fill="white"/>
<path fill-rule="evenodd" clip-rule="evenodd" d="M41.7364 38.4246C38.8536 39.5086 35.7342 39.5064 33.1787 38.416C30.8124 37.4082 29.1063 35.5811 28.374 33.2708C26.9117 28.6643 30.1322 23.2344 35.5537 21.166C38.4662 20.0706 41.6089 20.0756 44.1901 21.1739C46.5331 22.1717 48.2167 23.9575 48.9298 26.2002C50.4218 30.8729 47.1981 36.3569 41.7364 38.4246Z" fill="#130400"/>
<path fill-rule="evenodd" clip-rule="evenodd" d="M46.8667 26.4835C45.6804 22.7532 41.0746 21.0329 36.5002 22.7532C32.0685 24.4436 29.314 28.8729 30.4987 32.6039C31.7196 36.4516 36.29 38.1726 40.8645 36.4516C45.3323 34.7612 48.0868 30.3006 46.8667 26.4835Z" fill="white"/>
<path fill-rule="evenodd" clip-rule="evenodd" d="M43.7706 27.1974C43.7706 29.1775 41.9009 30.7377 39.5282 30.7377C37.1908 30.7377 35.3219 29.1775 35.3219 27.1974C35.3219 25.3376 37.1908 23.7767 39.5643 23.7767C41.9009 23.7774 43.7706 25.3376 43.7706 27.1974Z" fill="#130400"/>
<path fill-rule="evenodd" clip-rule="evenodd" d="M40.5975 23.8287C39.1769 23.8287 38.0259 24.7376 38.0259 25.8593C38.0259 26.9811 39.1769 27.89 40.5975 27.89C42.0172 27.89 43.1682 26.9811 43.1682 25.8593C43.1682 24.7376 42.0172 23.8287 40.5975 23.8287Z" fill="white"/>
<path fill-rule="evenodd" clip-rule="evenodd" d="M25.8489 31.5505C32.0404 27.512 34.9906 21.4144 32.7543 16.8364C31.7757 14.849 30.0907 13.2006 27.9569 12.1431C26.481 11.2712 24.7203 10.726 22.8762 10.5424C18.3555 9.83846 12.922 10.5616 7.57586 12.5787C5.68305 13.2868 3.85858 14.1309 2.12066 15.1026L0.029541 16.2827L1.29207 18.1752L5.20721 24.0458C5.20721 24.0458 6.41038 25.8501 6.416 25.8472L8.5384 24.9269L8.83358 24.7988L18.5641 44.0802L19.5001 45.9336L21.6795 45.3151L26.9486 43.8197L29.2563 43.1656L28.6459 41.0844L25.8489 31.5505Z" fill="black"/>
<path fill-rule="evenodd" clip-rule="evenodd" d="M30.4065 17.7396C29.6309 16.1524 28.2929 14.9076 26.5395 14.0335C25.2682 13.2826 23.8083 12.9196 22.4343 12.7794C18.5376 12.173 13.6792 12.7438 8.5777 14.6691C6.76091 15.3546 5.05641 16.1382 3.49469 17.0201L7.40982 22.8906C8.41247 22.4529 9.49773 21.9931 10.0833 21.719L20.9006 43.1528L26.1705 41.6581L22.918 30.5718C29.1424 27.1611 32.2891 21.5931 30.4065 17.7396Z" fill="white"/>
<path fill-rule="evenodd" clip-rule="evenodd" d="M85.7574 23.3767L82.0524 20.4173L83.87 18.6998L85.5072 17.1525L83.9984 15.5048C81.0546 12.2898 76.347 11.0001 71.4091 12.057C64.5382 13.5261 60.6616 18.7745 62.1904 24.5362C62.8048 26.8537 64.446 28.8402 66.8098 30.1313C69.6341 31.6736 73.1826 32.0957 76.8018 31.3213C80.6231 30.5049 83.4257 29.1327 85.893 26.8736L87.8702 25.0636L85.7574 23.3767Z" fill="#130400"/>
<path fill-rule="evenodd" clip-rule="evenodd" d="M80.064 21.9731C79.1351 22.9504 78.0699 23.8408 76.1705 24.2472C75.5376 24.3824 74.6794 24.5084 74.1371 24.423L82.1005 16.8969C79.849 14.4399 76.1665 13.3054 71.9818 14.2001C66.7809 15.3125 63.2725 19.151 64.5711 24.0472C65.6162 27.9867 70.522 30.3946 76.2154 29.1775C79.6637 28.4401 82.062 27.2586 84.2149 25.2878L80.064 21.9731Z" fill="white"/>
<path fill-rule="evenodd" clip-rule="evenodd" d="M67.624 10.8299L77.3809 0.856873L82.7775 8.00785L70.4474 13.8862L67.624 10.8299Z" fill="#130400"/>
<path fill-rule="evenodd" clip-rule="evenodd" d="M76.9638 4.03415L79.8185 7.47405L71.6578 11.0627L71.0939 10.3047L76.9638 4.03415Z" fill="white"/>
<path fill-rule="evenodd" clip-rule="evenodd" d="M70.9134 22.0892C70.6228 21.6213 70.5013 21.0855 70.5653 20.5543C70.6294 20.0231 70.876 19.5223 71.2716 19.1196C71.6673 18.717 72.1929 18.432 72.7772 18.3033C73.3615 18.1746 73.9763 18.2084 74.5382 18.4002L70.9134 22.0892ZM71.3129 19.077C70.9004 19.4792 70.64 19.9858 70.5683 20.5258C70.4965 21.0658 70.6169 21.6122 70.9126 22.0885L74.5366 18.3995C73.9848 18.2114 73.3819 18.1755 72.8068 18.2963C72.2316 18.4172 71.711 18.6893 71.3129 19.077ZM76.5483 17.8464C76.1064 17.4895 75.5895 17.2132 75.0273 17.0335C74.465 16.8538 73.8684 16.7741 73.2715 16.799C72.6745 16.8239 72.0889 16.9529 71.5482 17.1786C71.0074 17.4042 70.522 17.7223 70.1197 18.1144C69.7175 18.5065 69.4062 18.9652 69.2036 19.4641C69.0011 19.963 68.9113 20.4924 68.9393 21.0221C68.9674 21.5518 69.1127 22.0714 69.3671 22.5512C69.6214 23.0311 69.9798 23.4618 70.4217 23.8187C70.5765 23.9433 70.7402 24.0529 70.907 24.1554L76.8692 18.1347C76.7681 18.0335 76.661 17.9373 76.5483 17.8464ZM70.9134 22.0892C70.6228 21.6213 70.5013 21.0855 70.5653 20.5543C70.6294 20.0231 70.876 19.5223 71.2716 19.1196C71.6673 18.717 72.1929 18.432 72.7772 18.3033C73.3615 18.1746 73.9763 18.2084 74.5382 18.4002L70.9134 22.0892ZM26.3077 21.4066C25.8449 19.1347 22.5121 17.8628 19.1801 19.4479L20.0167 22.05L21.3354 25.8963L21.937 27.6508C24.4332 26.243 26.9494 24.5526 26.3077 21.4066ZM22.9918 24.8764L21.8536 21.5547L21.5151 20.502C22.2217 20.3909 22.8979 20.4472 23.4538 20.6856C23.7634 20.818 24.3008 21.1276 24.4187 21.7091C24.6858 23.0152 24.1781 23.9447 22.9918 24.8764ZM24.1003 55.8419C23.7265 56.0875 23.376 56.2974 23.0704 56.4626C23.214 55.7743 23.4506 55.1017 23.7369 54.4711C23.7289 54.5131 23.7209 54.5544 23.7161 54.5956C23.6728 55.0384 23.8091 55.4803 24.1003 55.8419ZM31.098 51.3593C30.911 51.2081 30.6882 51.096 30.446 51.0312C30.2038 50.9665 29.9483 50.9506 29.6983 50.9849C29.6216 50.996 29.546 51.0122 29.4721 51.0333C29.1985 51.1123 28.7205 51.3152 27.328 51.923L26.7585 52.1721C26.3655 52.3408 25.8032 52.5764 25.5152 52.639L25.4639 52.6518C24.9858 52.7728 24.5904 53.0476 24.296 53.3821C24.8109 52.4823 25.4134 51.6243 26.0968 50.8176C26.3086 50.8042 26.5179 50.7681 26.72 50.7102C27.5735 50.4525 27.9456 49.718 28.009 49.1173L28.013 49.0696C28.0188 48.9309 28.0132 48.7919 27.9962 48.6539C27.989 48.5721 27.9793 48.4781 27.9745 48.3813C27.9727 48.3418 27.9684 48.3023 27.9617 48.2632L27.9464 48.1614C27.9103 47.9187 27.8662 47.6468 27.7555 47.3785C27.5831 46.9379 27.243 46.5906 26.7914 46.4005C26.3149 46.2005 25.7535 46.1905 25.2112 46.3742C25.1977 46.3785 25.1843 46.3832 25.1711 46.3884C24.4757 46.6439 23.5958 47.3628 23.1209 47.9094C21.5688 49.755 18.5593 54.0454 18.1831 57.1978C18.1808 57.2201 18.1789 57.2424 18.1775 57.2647C18.0796 58.8462 18.7293 59.6768 19.2908 60.0953C19.8242 60.4918 20.7851 60.8975 22.3364 60.5758L22.4046 60.5601C23.9134 60.1786 25.5072 59.3886 27.1652 58.2064C27.4981 58.8113 28.252 59.3601 29.4536 59.1359L29.5082 59.1245C30.2982 58.9487 31.1605 58.3088 31.28 57.4263C31.284 57.3964 31.2865 57.3665 31.2889 57.3373C31.3017 57.1038 31.2704 56.8839 31.2375 56.6526C31.2038 56.4163 31.1685 56.1722 31.1862 55.9323C31.2303 55.4383 31.3426 54.7323 31.499 53.9693L31.576 53.5935C31.6602 53.1892 31.6851 53.0668 31.7148 52.7337L31.718 52.6889C31.7321 52.4403 31.6838 52.1921 31.5765 51.9622C31.4693 51.7322 31.3058 51.5263 31.098 51.3593ZM27.7331 47.3222C27.7419 47.3407 27.7475 47.36 27.7547 47.3785L27.7652 47.3991C27.7559 47.373 27.7452 47.3474 27.7331 47.3222Z" fill="black"/>
<path fill-rule="evenodd" clip-rule="evenodd" d="M37.3648 49.345C36.582 48.7236 35.5296 48.4169 34.6168 48.5422C34.2814 48.4899 33.9378 48.4949 33.6045 48.5571L33.5427 48.5692C32.6083 48.7735 32.2545 49.345 32.1174 49.5721C30.7281 50.9151 29.6356 53.0034 29.4536 54.6796L29.4487 54.7344C29.3669 56.0796 29.7319 57.0804 30.5316 57.7095C31.2912 58.3074 32.3564 58.5039 33.696 58.2953L33.7746 58.2804C35.9555 57.8313 38.4653 55.9956 38.8207 53.0269C38.8231 53.002 38.8263 52.9757 38.8271 52.95C38.9282 51.0098 38.0875 49.9187 37.3648 49.345Z" fill="black"/>
<path fill-rule="evenodd" clip-rule="evenodd" d="M42.6668 48.0105C42.5229 47.8982 42.3606 47.8058 42.1856 47.7365L42.1904 47.439C42.1944 47.1308 42.2 46.8126 42.208 46.6874C42.2417 46.0297 41.973 45.4475 41.4725 45.0653C40.9656 44.6781 40.2838 44.5343 39.5522 44.661C39.5234 44.666 39.4948 44.6716 39.4664 44.6781C38.345 44.9343 37.5413 45.8076 37.4186 46.9037C37.3713 47.4105 37.3961 47.8596 37.4194 48.2945C37.4282 48.4539 37.4354 48.6105 37.4403 48.7685C36.7224 49.0881 36.2515 49.7322 36.1657 50.5543C36.143 50.8175 36.188 51.0819 36.2974 51.3274C36.4068 51.5729 36.5776 51.7931 36.797 51.9714C36.9702 52.1095 37.1699 52.2141 37.3833 52.286C37.3712 52.6649 37.3525 53.0436 37.3272 53.422C37.2766 54.0547 37.2213 55.5288 37.2285 55.8725C37.2397 56.1151 37.312 56.3524 37.4402 56.567C37.5683 56.7816 37.7489 56.9679 37.9688 57.1124C38.3146 57.3409 38.937 57.5864 39.9388 57.4533C39.9611 57.4504 39.9833 57.4471 40.0054 57.4434C41.0434 57.2619 41.9137 56.4797 42.03 55.6255C42.0332 55.5999 42.0364 55.575 42.038 55.5501C42.0604 55.232 42.1038 53.4967 42.111 53.0405L42.1102 52.9657C42.0973 52.7095 42.1158 51.9558 42.1366 51.3472L42.1639 51.3358C42.8561 51.0063 43.3238 50.3202 43.3671 49.5828C43.368 49.5667 43.3686 49.5505 43.3687 49.5344C43.3807 48.9144 43.1313 48.3728 42.6668 48.0105Z" fill="black"/>
<path fill-rule="evenodd" clip-rule="evenodd" d="M47.4098 47.3251C47.2659 47.2102 47.1034 47.1152 46.9277 47.0432L46.9349 46.6724C46.9413 46.3279 46.9478 46.0019 46.9574 45.866C46.9919 45.1919 46.7232 44.5941 46.2227 44.2005C45.7269 43.8118 45.0604 43.656 44.3449 43.7634C44.3144 43.7677 44.2839 43.7734 44.2535 43.7791C43.1144 44.0154 42.2963 44.9044 42.1704 46.0446C42.1222 46.5692 42.1447 47.0389 42.1663 47.4937C42.1744 47.6653 42.1824 47.8404 42.1864 48.0183C41.4653 48.3357 40.9936 48.9834 40.907 49.8205L40.9022 49.8909C40.8923 50.1428 40.9433 50.3937 41.0516 50.6267C41.1599 50.8596 41.3231 51.0694 41.5303 51.2418C41.7043 51.3842 41.9057 51.4924 42.1214 51.5671C42.1081 51.9678 42.0883 52.3683 42.0621 52.7685C42.0107 53.4105 41.9554 54.8839 41.9642 55.2184C41.9658 55.2689 41.9698 55.3202 41.9786 55.37C42.1134 56.2227 42.9885 56.9999 44.6393 56.8149L44.7066 56.8056C45.7606 56.6433 46.6446 55.8704 46.7625 55.0077L46.7705 54.9323C46.7922 54.6219 46.8355 52.8838 46.8435 52.4226L46.8427 52.3479C46.8307 52.0874 46.8499 51.3137 46.8724 50.6902L46.8868 50.6838C47.5878 50.3571 48.0587 49.6653 48.1044 48.9165L48.106 48.8703C48.1172 48.2432 47.8702 47.6945 47.4098 47.3251Z" fill="black"/>
<path fill-rule="evenodd" clip-rule="evenodd" d="M53.9182 49.5351C53.3054 46.2475 51.6113 45.7243 50.299 45.8688C50.2692 45.8718 50.2395 45.8758 50.21 45.8809C49.0942 46.066 47.1427 47.2745 46.59 47.7286C46.5684 47.7457 46.5475 47.7649 46.5267 47.7835C46.0906 48.1776 45.83 48.6983 45.7927 49.2497C45.7687 49.8283 46.0069 50.36 46.4649 50.7443C46.6133 50.8696 46.7825 50.9714 46.963 51.054C46.0967 51.817 45.1222 52.8945 44.9946 54.2127C44.9916 54.2442 44.9897 54.2758 44.989 54.3074C44.9802 54.8704 45.2136 55.3715 45.6451 55.7181C46.3358 56.2725 47.2726 56.2505 47.9175 56.1857L47.9552 56.1814C48.6705 56.0853 49.365 55.8923 50.0143 55.6092C50.4105 55.7978 50.8926 55.8697 51.4549 55.8213L51.4958 55.817C51.8359 55.7793 52.9821 55.5935 53.4425 54.7864C53.4546 54.7658 53.4658 54.7437 53.4762 54.7223C53.9102 53.8483 54.0208 52.7209 54.0321 52.5949C54.0585 52.2889 54.1692 50.7436 53.9182 49.5351ZM49.2386 52.7394L49.2402 52.7387V52.7579C49.2393 52.7518 49.2387 52.7456 49.2386 52.7394ZM49.2523 52.9287L49.2579 52.96L49.2523 52.9287ZM64.3569 50.6063C63.931 50.2297 63.327 50.0319 62.6556 50.0511C62.617 50.0523 62.5785 50.0549 62.5401 50.0589C61.9819 50.113 61.5375 50.3557 61.187 50.6091C61.4685 50.0589 61.8246 49.6112 62.1102 49.5194C62.7984 49.3159 63.6487 48.7642 63.7874 47.2938L63.7906 47.256C63.8348 46.555 63.627 45.9962 63.1754 45.5962C62.8826 45.3371 62.3572 45.0375 61.5158 45.0795C61.4356 45.0831 61.3554 45.0937 61.2776 45.1087C59.9148 45.3791 56.3895 48.587 55.9523 52.1045L55.9459 52.1714C55.8874 53.0561 56.1449 53.7643 56.7095 54.2761C57.3408 54.8462 58.2496 55.1024 59.4897 55.059C59.5226 55.0576 59.5555 55.0562 59.5883 55.0526C60.8749 54.9309 64.5246 53.9921 64.9032 52.0454C64.9149 51.985 64.9219 51.9238 64.924 51.8625C64.9321 51.6297 64.8859 51.398 64.7883 51.1818C64.6907 50.9657 64.5439 50.7697 64.3569 50.6063Z" fill="black"/>
<path fill-rule="evenodd" clip-rule="evenodd" d="M71.2174 48.5116C70.753 45.8012 69.5907 44.4375 67.7651 44.4795C67.7316 44.48 67.6982 44.4819 67.6649 44.4852C66.5114 44.5813 64.5053 45.7414 63.9398 46.1934C63.4538 46.5972 63.1627 47.1522 63.1273 47.7422C63.1016 48.3237 63.3294 48.8667 63.769 49.271C63.9495 49.4361 64.158 49.5685 64.3818 49.6682C63.489 50.4027 62.4503 51.471 62.3172 52.839C62.3141 52.8708 62.3122 52.9026 62.3115 52.9344C62.3019 53.6291 62.6396 54.0711 62.9252 54.3188C63.5733 54.8839 64.4845 54.9259 65.1133 54.9081L65.1526 54.9067C65.8587 54.8643 66.5527 54.7223 67.2085 54.486C67.5895 54.7017 68.0651 54.8063 68.6282 54.7992L68.6731 54.7978C69.0285 54.7835 70.2284 54.6725 70.7241 53.8326C70.737 53.812 70.7482 53.7899 70.7594 53.7686C71.1862 52.938 71.3017 51.8547 71.3225 51.6454C71.3458 51.3358 71.4589 49.7778 71.2174 48.5116ZM67.9881 50.3685C67.9592 50.3707 67.9304 50.3721 67.9023 50.3757L67.9111 50.3685C67.936 50.3671 67.9624 50.3685 67.9881 50.3685Z" fill="black"/>
<path fill-rule="evenodd" clip-rule="evenodd" d="M75.0211 45.0525C75.0291 44.8105 75.0355 44.5734 75.0411 44.3542C75.0524 43.9485 75.0628 43.5649 75.074 43.3962C75.1133 42.7008 74.8687 42.0581 74.4018 41.614C74.1786 41.4027 73.9068 41.2364 73.6048 41.1264C73.3029 41.0164 72.9778 40.9652 72.6516 40.9762C71.3955 41.0375 70.4538 41.9741 70.3102 43.3079C70.2565 43.8973 70.2725 44.4446 70.287 44.9734C70.2926 45.1841 70.2982 45.3984 70.2998 45.6162C69.6822 45.871 69.1183 46.4404 69.0148 47.4575L69.01 47.5215C68.9867 48.0283 69.1945 48.5287 69.5803 48.8938C69.7632 49.066 69.9782 49.1998 70.2132 49.2917C70.1891 49.8539 70.1618 50.4817 70.1378 50.7878C70.084 51.4589 70.0287 52.923 70.0375 53.2639C70.0391 53.3145 70.0431 53.365 70.052 53.4141C70.1643 54.1316 70.8757 54.9721 72.5088 54.9828L72.5794 54.9814C73.7056 54.9408 74.6898 54.1906 74.8165 53.2739C74.8213 53.2476 74.8229 53.2212 74.8262 53.1949C74.8605 52.322 74.8856 51.4489 74.9016 50.5757C74.8903 50.3023 74.9144 49.4824 74.9393 48.8148C75.6443 48.5059 76.1192 47.829 76.1689 47.0468L76.1721 46.997C76.1914 46.1087 75.7374 45.3863 75.0211 45.0525Z" fill="black"/>
<path fill-rule="evenodd" clip-rule="evenodd" d="M79.6364 49.8112C79.5964 49.809 79.5562 49.8085 79.5161 49.8098C78.8423 49.8297 78.3162 50.1336 77.9352 50.4098C78.2199 49.7714 78.6242 49.2482 78.9113 49.1778C78.8995 49.1814 78.8874 49.1845 78.8752 49.187C79.4752 49.0532 80.5043 48.5863 80.6583 46.9678L80.6599 46.9307C80.7041 46.2489 80.5124 45.6951 80.0928 45.2852C79.8249 45.0232 79.3381 44.7044 78.5359 44.6752C78.4518 44.6724 78.3675 44.6759 78.2841 44.6859C76.7111 44.8688 73.2724 48.0688 72.8465 51.5023C72.8436 51.5246 72.8414 51.5469 72.8401 51.5693C72.8201 51.8931 72.7543 52.8796 73.5652 53.6739C74.1572 54.2533 75.0628 54.5693 76.2555 54.6106C76.2884 54.612 76.3229 54.612 76.3558 54.6113C77.664 54.5778 81.3738 53.8639 81.7621 51.8625C81.7733 51.802 81.7805 51.7415 81.7821 51.6803C81.8158 50.6682 80.8926 49.8653 79.6364 49.8112Z" fill="black"/>
<path fill-rule="evenodd" clip-rule="evenodd" d="M85.7069 44.8218C85.66 44.8172 85.6129 44.8144 85.5657 44.8133C85.0355 44.8029 84.5084 44.8876 84.016 45.0624C84.024 44.8403 84.0328 44.6247 84.0489 44.4247C84.1395 43.3784 84.231 42.6667 84.304 42.0944C84.3465 41.7634 84.3842 41.4773 84.4074 41.2197L84.409 41.1848C84.4949 39.7798 83.6366 38.7143 82.3203 38.5926C82.287 38.5897 82.2535 38.5875 82.2201 38.5862C79.5426 38.5008 79.2891 41.167 79.1937 42.1699C79.0701 43.8275 79.1279 45.9642 79.1752 47.681C79.1953 48.4945 79.2161 49.197 79.2113 49.6874V49.7358C79.2129 49.7664 79.3605 52.9429 79.5875 53.6889C79.6124 53.7728 79.6469 53.8533 79.691 53.9309C80.1971 54.8326 81.0586 54.938 81.8968 54.97C81.9329 54.9707 81.969 54.9714 82.0051 54.97C82.715 54.9508 83.3166 54.6675 83.6895 54.2241C84.028 54.57 84.5406 54.8326 85.2545 54.9145C85.3018 54.9202 85.3499 54.9237 85.3972 54.9252C86.8699 54.9657 87.9039 54.2198 88.0322 53.0255C88.0619 52.7871 88.1405 52.3358 88.2167 51.8995C88.3121 51.3507 88.4028 50.8312 88.4341 50.518C88.7605 46.0816 87.1298 44.9749 85.7069 44.8218ZM94.186 40.567C94.1112 40.5537 94.0353 40.5456 93.959 40.5428C92.6355 40.4915 92.1029 41.604 91.6746 42.498C91.5628 42.7371 91.4443 42.9737 91.3193 43.2076C91.288 43.2574 91.2358 43.3357 91.1829 43.414C90.8067 43.9763 90.4907 44.4873 90.4169 45.046C90.4121 45.0795 90.4089 45.1129 90.4073 45.1471C90.3599 46.2069 91.203 47.0795 92.4126 47.2219C92.4671 47.2276 92.5224 47.2318 92.5786 47.2325C93.813 47.2525 94.9978 45.987 95.3138 45.5421C95.3355 45.5115 95.3547 45.4809 95.3732 45.4496C95.7726 44.7734 96.2459 43.7279 96.3165 43.2154C96.3229 43.1734 96.3261 43.1314 96.3277 43.088C96.3509 42.2183 95.6018 40.8197 94.186 40.567Z" fill="black"/>
<path fill-rule="evenodd" clip-rule="evenodd" d="M98.3987 50.1657C98.5648 49.7707 98.5961 49.3984 98.6177 49.1343L98.6225 49.0831C98.6257 49.0539 98.6257 49.024 98.6273 48.9948C98.637 47.6667 97.0359 45.6019 94.4034 45.2581C94.3164 45.2465 94.2283 45.242 94.1403 45.2446C92.3371 45.2973 91.3313 47.9443 91.0602 49.8098C90.6511 50.0974 90.3439 50.5237 90.2749 51.2269C90.2571 51.5018 90.3068 51.7768 90.4206 52.0329C90.5345 52.2891 90.7097 52.5201 90.9342 52.7102C91.1516 54.0618 92.0027 55.3344 93.6462 55.5487C93.7168 55.5579 93.7858 55.5629 93.8564 55.5629C94.4692 55.565 95.1646 55.3038 96.7199 54.4889L96.8266 54.4326C97.7964 53.9358 99.2706 53.1792 99.468 51.9892C99.476 51.9493 99.4792 51.9095 99.4824 51.8689C99.5281 51.1045 99.111 50.4796 98.3987 50.1657ZM92.0099 50.5087C91.985 50.5144 91.9586 50.518 91.9313 50.5244C91.9573 50.5183 91.9835 50.5131 92.0099 50.5087Z" fill="black"/>
<path fill-rule="evenodd" clip-rule="evenodd" d="M109.611 50.6938C109.595 49.2418 108.968 47.4325 107.252 47.056C107.21 47.0477 107.168 47.0403 107.127 47.034C106.312 46.9215 105.438 47.0368 104.662 47.3286C104.209 46.9415 103.631 46.6884 103.009 46.604C102.292 46.5307 101.626 46.7044 101.039 47.0147C100.718 46.772 100.286 46.5934 99.7046 46.5172C99.6685 46.5122 99.6324 46.5094 99.5963 46.5065C98.5199 46.4354 97.1915 47.2781 97.0271 48.5115C97.0228 48.5375 97.0201 48.5636 97.0191 48.5898C96.991 49.0041 97.0303 49.4625 97.0736 49.9927C97.1226 50.5707 97.1771 51.2262 97.1739 52.0483C97.1803 52.412 97.2212 54.138 97.4009 54.8077C97.4194 54.8817 97.4482 54.9543 97.4827 55.0248C97.7947 55.6647 98.5447 56.1003 99.5426 56.2206C99.5642 56.2234 99.5851 56.2255 99.6067 56.2269C100.223 56.2768 100.89 56.1458 101.391 55.8298C101.712 56.1323 102.217 56.3828 103.01 56.4903C103.035 56.4939 103.06 56.4967 103.087 56.4988C103.855 56.5665 104.491 56.4198 104.978 56.0632C104.994 56.0519 105.011 56.0376 105.027 56.0255C105.379 56.4312 105.932 56.7074 106.662 56.8234L106.723 56.8327C107.514 56.928 108.178 56.7928 108.696 56.4305C109.028 56.1971 109.441 55.7622 109.523 55.0177C109.524 55.0035 109.525 54.9893 109.526 54.975C109.544 54.7301 109.54 54.4476 109.537 54.1187C109.532 53.8077 109.527 53.4554 109.545 53.1415C109.581 52.4354 109.608 51.3208 109.611 50.6938ZM118.846 52.5016C118.394 50.1806 117.415 48.9315 115.769 48.5906C115.743 48.5847 115.717 48.58 115.691 48.5763C114.646 48.4112 112.683 48.8582 111.922 49.2297C111.605 49.3888 111.34 49.6172 111.151 49.8931C110.963 50.1689 110.857 50.483 110.844 50.8055C110.811 51.6319 111.342 52.3223 112.007 52.6938C111.258 53.1856 110.204 54.0924 110.065 55.5237C110.062 55.5543 110.06 55.5849 110.06 55.6156C110.047 56.296 110.346 57.496 112.491 57.8853L112.53 57.8925C113.214 57.9999 113.915 57.9912 114.595 57.8668C114.929 58.1707 115.386 58.3957 115.939 58.506C115.955 58.5096 115.969 58.5124 115.985 58.5145C116.782 58.6512 117.884 58.5252 118.365 57.7188C118.379 57.6946 118.393 57.6704 118.406 57.6448C118.838 56.7964 118.956 55.6433 118.967 55.5145C119.003 55.0917 119.093 53.6568 118.846 52.5016ZM115.357 53.8974C115.493 53.8703 115.633 53.859 115.773 53.8668C115.633 53.8649 115.494 53.8751 115.357 53.8974Z" fill="black"/>
<path fill-rule="evenodd" clip-rule="evenodd" d="M122.203 56.3067C122.116 55.6697 122.006 54.8775 122.004 54.2604C122.009 53.8291 121.958 53.0661 121.901 52.1842C121.841 51.2874 121.769 50.1757 121.789 49.7721C121.837 49.2568 121.904 48.8027 121.957 48.4368C122.007 48.0952 122.048 47.8247 122.06 47.5899C122.062 47.5621 122.062 47.535 122.062 47.5073C122.045 46.4767 121.091 45.7322 120.152 45.451C120.133 45.445 120.113 45.4397 120.093 45.4354C119.151 45.192 118.492 45.4204 118.104 45.656C117.22 46.192 117.026 47.1678 116.957 47.8553L116.954 47.8895C116.863 49.1778 116.982 50.6511 117.087 51.9508C117.147 52.6889 117.204 53.3864 117.204 53.8839C117.199 54.8241 117.253 55.7736 117.293 56.4668C117.311 56.8142 117.329 57.1138 117.329 57.2562C117.329 57.2797 117.33 57.3031 117.332 57.3273C117.358 57.775 117.628 58.8619 119.546 59.2882L119.591 59.2975C120.511 59.4754 121.127 59.2413 121.48 59.0135C121.955 58.7089 122.253 58.2299 122.319 57.6647C122.322 57.6362 122.325 57.6071 122.327 57.5786C122.338 57.2932 122.293 56.9466 122.203 56.3067Z" fill="black"/>
<path fill-rule="evenodd" clip-rule="evenodd" d="M125.508 56.9978C125.422 56.3586 125.314 55.5608 125.312 54.9522C125.315 54.5131 125.261 53.7088 125.202 52.8575C125.143 52.0048 125.071 50.9465 125.088 50.5707C125.133 50.0845 125.196 49.6603 125.247 49.318C125.297 48.9913 125.336 48.7336 125.348 48.5037C125.349 48.476 125.349 48.4482 125.349 48.4204C125.327 47.4283 124.384 46.6923 123.459 46.4019C123.44 46.3961 123.421 46.3907 123.402 46.3855C122.441 46.1229 121.772 46.3464 121.38 46.5799C120.508 47.0994 120.32 48.0311 120.254 48.6874L120.251 48.7208C120.165 49.9315 120.285 51.3507 120.392 52.6027C120.455 53.3429 120.514 54.0433 120.516 54.5465C120.509 55.4796 120.563 56.4376 120.6 57.138C120.62 57.4939 120.637 57.8021 120.637 57.9508C120.637 57.9715 120.637 57.9935 120.639 58.0142C120.664 58.4611 120.925 59.5501 122.82 60.0092L122.866 60.0192C123.785 60.2149 124.407 59.9872 124.766 59.7608C125.251 59.4569 125.555 58.9715 125.624 58.3935C125.627 58.3658 125.629 58.3373 125.631 58.3096C125.642 58.0199 125.594 57.6419 125.508 56.9978Z" fill="black"/>
<path fill-rule="evenodd" clip-rule="evenodd" d="M30.0472 53.7344C29.898 54.4618 29.768 55.2398 29.7127 55.8504C29.6702 56.4583 29.8322 56.9786 29.8153 57.2697C29.776 57.5622 29.3998 57.7992 29.1488 57.8547C28.8977 57.9017 28.5929 57.9209 28.4541 57.5608C28.3852 57.3857 28.3651 57.0142 28.4028 56.5473C28.4501 56.0028 28.5167 55.602 28.5785 55.2839C26.2034 57.4497 23.9422 58.8099 21.9995 59.3017C20.2501 59.6654 19.5563 58.8085 19.6469 57.3352C19.9541 54.7636 22.4351 50.9087 24.2863 48.708C24.7059 48.2254 25.3909 47.7222 25.735 47.5962C25.99 47.5108 26.2596 47.5258 26.3678 47.8133C26.44 47.9713 26.4681 48.2261 26.5026 48.4454C26.517 48.7052 26.5475 48.9087 26.5411 48.9955C26.5259 49.1379 26.4408 49.4141 26.2435 49.4738C26.1553 49.4952 26.055 49.5201 25.9307 49.518C25.8256 49.5101 25.6925 49.4973 25.6227 49.5123C25.5344 49.5358 25.301 49.6084 25.0042 49.9322C23.7505 51.3728 21.807 54.1187 21.4894 57.0198C21.426 58.0028 21.8567 58.2647 22.5955 58.1174C23.7257 57.8206 26.2652 56.2198 27.9616 54.4547C28.0755 54.3536 28.1453 54.2689 28.244 54.155C28.0106 54.2049 27.8149 54.3536 27.1924 54.6362C26.5684 54.9365 26.3021 55.1693 25.8529 55.2675C25.4037 55.3423 25.1671 55.0106 25.1783 54.7415C25.212 54.4689 25.508 54.0006 25.8657 53.9095C26.2251 53.8312 26.7071 53.6476 27.4042 53.3472C28.3747 52.9251 29.6589 52.355 29.9284 52.2767C30.0544 52.2596 30.2533 52.3835 30.2413 52.6326C30.214 52.9643 30.1988 52.9906 30.0472 53.7344ZM33.246 50.4119C33.4666 50.219 33.4289 49.9408 33.8941 49.8383C34.3433 49.7585 34.4243 49.9052 34.8374 49.834C35.6989 49.713 37.4844 50.4205 37.3544 52.8888C37.0609 55.3465 34.9441 56.6967 33.4409 57.0063C31.9169 57.2441 30.7947 56.8718 30.9199 54.8034C31.0731 53.3963 32.046 51.5479 33.246 50.4119ZM35.4157 53.5209C35.5023 52.2276 35.0403 51.0831 34.5398 51.1223C34.0248 51.2696 33.0743 52.8397 32.9107 54.3636C32.8209 55.6298 33.2003 55.9935 33.7561 55.9195C34.3986 55.7757 35.2705 54.8319 35.4157 53.5209ZM38.1301 51.086C37.8084 51.1265 37.6248 50.8895 37.6336 50.676C37.6689 50.3365 37.8381 49.9628 38.2496 49.881C38.4822 49.8383 38.7028 49.7194 38.9009 49.6845C38.9803 48.6269 38.8095 47.8589 38.8857 47.0332C38.9362 46.5799 39.2434 46.0795 39.8354 45.9443C40.4995 45.8297 40.7586 46.2062 40.7386 46.6055C40.7097 47.0055 40.7241 48.3293 40.6584 49.1649C40.8934 49.0859 41.0121 48.9486 41.2976 48.8987C41.6738 48.8518 41.904 49.1073 41.8968 49.5144C41.8768 49.8497 41.6618 50.0916 41.4805 50.1778C41.2038 50.3073 40.8854 50.3884 40.7033 50.4504C40.6792 50.7728 40.6158 52.5365 40.6391 53.0219C40.6243 53.8378 40.6007 54.6535 40.5685 55.4689C40.534 55.7216 40.1859 56.0796 39.7215 56.1608C39.1496 56.2369 38.7477 56.1302 38.702 55.8476C38.6956 55.5572 38.7477 54.1266 38.7974 53.5145C38.8456 52.9017 38.8881 51.2831 38.9154 50.9123C38.6651 50.9685 38.3988 51.0411 38.1301 51.086ZM42.869 50.3749C42.5473 50.4091 42.3661 50.1593 42.3749 49.9408C42.4102 49.5913 42.5802 49.2098 42.9917 49.1336C43.2243 49.0952 43.4449 48.9785 43.6422 48.9464C43.7248 47.8518 43.558 47.0404 43.6374 46.1727C43.6904 45.6952 43.9984 45.1756 44.5895 45.0531C45.2529 44.9542 45.5088 45.362 45.4879 45.7806C45.4566 46.2012 45.4662 47.5891 45.3981 48.4539C45.6331 48.3785 45.751 48.239 46.0374 48.1948C46.4119 48.1557 46.6405 48.4269 46.6325 48.8482C46.6125 49.1934 46.3975 49.4368 46.2154 49.5208C45.9395 49.6461 45.6211 49.723 45.439 49.782C45.4141 50.1144 45.3483 51.9116 45.3708 52.4027C45.362 52.9116 45.3195 54.5878 45.3002 54.8511C45.2665 55.1017 44.9192 55.4476 44.4556 55.5188C43.8853 55.5828 43.4826 55.4697 43.4385 55.1892C43.4305 54.9024 43.4834 53.4767 43.5323 52.8611C43.5813 52.244 43.6254 50.5934 43.6543 50.2141C43.4024 50.2667 43.1377 50.3351 42.869 50.3749ZM50.5797 53.6646C49.7752 54.3985 48.6073 54.7785 47.7515 54.8853C46.8964 54.9707 46.4545 54.8447 46.4625 54.323C46.5523 53.3985 47.3127 52.5387 48.3298 51.7009C49.1536 50.9756 50.0712 50.2646 50.3191 50.061C50.4715 49.9393 50.6247 49.8568 50.7506 49.8233C50.7049 49.2504 50.526 48.6404 49.9733 48.6788C49.4744 48.7528 48.775 49.2404 48.4589 49.5664C48.41 49.6205 48.1581 49.9265 47.9801 49.9586C47.6777 49.9828 47.2453 49.7664 47.2646 49.2973C47.2927 49.0333 47.4202 48.8447 47.5911 48.6874C48.1533 48.2247 49.837 47.2724 50.4795 47.1656C51.0329 47.1051 51.9923 47.2197 52.4695 49.7721C52.6829 50.802 52.5882 52.197 52.5642 52.4895C52.5369 52.7977 52.4134 53.6198 52.1286 54.1942C52.026 54.3743 51.5094 54.4974 51.3129 54.5188C51.0113 54.5444 50.4763 54.5415 50.4923 54.096L50.5797 53.6646ZM48.7613 52.6703C48.4301 53.076 48.3707 53.2639 48.3466 53.5152C48.3346 53.7358 48.483 53.8319 48.7501 53.8091C49.5514 53.7024 50.0624 53.1066 50.242 52.9899C50.5019 52.844 50.7418 52.7187 50.7073 52.7536C50.749 52.2646 50.8019 51.6312 50.8059 50.9892C50.2822 51.3465 49.3052 52.0362 48.7613 52.6703ZM59.2651 51.8867C59.2225 52.4625 59.3292 52.7415 59.9316 52.7194C60.5525 52.6696 61.1051 52.3315 61.4171 52.1757C61.7059 52.0134 62.2064 51.4063 62.7037 51.3579C63.1994 51.3436 63.4609 51.5771 63.4529 51.8233C63.2732 52.7465 60.749 53.6276 59.4335 53.7529C57.6271 53.8162 57.3657 53.0568 57.4186 52.2483C57.7964 49.2091 60.9447 46.5151 61.6008 46.3848C62.0612 46.3621 62.362 46.5379 62.3211 47.1841C62.2754 47.6639 62.1294 48.1365 61.6449 48.2795C60.2324 48.7301 59.387 50.7785 59.2651 51.8867ZM67.8774 52.5856C67.0761 53.2661 65.917 53.5572 65.0668 53.6013C64.2165 53.6248 63.7778 53.4703 63.785 52.9508C63.874 52.0319 64.632 51.207 65.6451 50.4155C66.4657 49.7265 67.3809 49.0539 67.6279 48.8589C67.7803 48.7429 67.9319 48.6681 68.0579 48.6439C68.0146 48.0382 67.8389 47.3727 67.2927 47.3656C66.7953 47.4005 66.0999 47.861 65.7839 48.182C65.7341 48.2354 65.4831 48.5393 65.3058 48.5585C65.0058 48.5592 64.5775 48.2938 64.5999 47.792C64.6288 47.5101 64.7572 47.3187 64.9272 47.1628C65.4887 46.713 67.1651 45.8382 67.8036 45.7841C68.3531 45.7713 69.3012 46.0226 69.7648 48.7272C69.9725 49.8205 69.8763 51.2418 69.8522 51.5379C69.8233 51.8497 69.7014 52.6725 69.4175 53.2248C69.3156 53.3977 68.8014 53.4824 68.6065 53.4903C68.3065 53.4945 67.7755 53.4533 67.79 53.0105L67.8774 52.5856ZM66.0718 51.4461C65.7422 51.8369 65.682 52.0226 65.6587 52.2739C65.6475 52.496 65.7943 52.6041 66.0598 52.5999C66.8579 52.5493 67.3648 51.9842 67.5437 51.8789C67.802 51.75 68.0418 51.6383 68.0065 51.6725C68.049 51.1778 68.1036 50.5308 68.1084 49.866C67.5862 50.197 66.6133 50.8369 66.0718 51.4461ZM70.968 48.1265C70.6503 48.1208 70.4722 47.8183 70.4835 47.5756C70.5228 47.1898 70.6936 46.782 71.1019 46.7585C71.3321 46.7507 71.5503 46.6517 71.746 46.6446C71.8382 45.4233 71.6866 44.4474 71.7789 43.4339C71.8382 42.8759 72.1487 42.3108 72.7326 42.2823C73.3839 42.2944 73.6318 42.8289 73.6053 43.3129C73.5692 43.7969 73.558 45.3962 73.4834 46.3535C73.7168 46.3037 73.8347 46.1663 74.1179 46.1599C74.486 46.1727 74.7098 46.5115 74.6994 46.9727C74.6761 47.3507 74.4628 47.5849 74.2823 47.6518C74.008 47.7507 73.6935 47.7905 73.5131 47.8297C73.4866 48.1891 73.4096 50.108 73.4296 50.624C73.4184 51.155 73.3751 52.854 73.3559 53.1138C73.3214 53.36 72.9797 53.6597 72.5192 53.676C71.9554 53.6718 71.5559 53.5145 71.5118 53.234C71.5038 52.9486 71.5575 51.5159 71.6088 50.8796C71.6586 50.2418 71.7155 48.4717 71.7452 48.0582C71.4965 48.0809 71.2327 48.1208 70.968 48.1265ZM85.0852 50.1628C85.1726 48.7785 84.9946 47.6731 84.5983 47.6098C83.8732 47.6382 82.6428 49.1827 82.5096 50.2112C82.4567 50.8468 82.4254 51.6475 82.4719 52.0725C82.5297 52.4362 82.6363 52.8952 82.6163 53.1992C82.5786 53.5159 82.2955 53.6554 81.9602 53.6639C81.1693 53.6348 81.1187 53.5408 81.0105 53.3486C80.8741 52.9031 80.7097 50.4625 80.6848 49.698C80.6992 48.1329 80.4891 44.6197 80.6647 42.2802C80.8356 40.4687 81.2535 39.8638 82.1703 39.8929C82.7125 39.9428 82.9788 40.4709 82.9395 41.1136C82.8818 41.7563 82.7294 42.6232 82.581 44.3343C82.4904 45.5129 82.5497 47.024 82.4952 48.1777C82.7711 47.392 83.9791 46.0859 85.5312 46.1186C86.5948 46.2325 87.1635 47.7201 86.9678 50.4041C86.918 50.9159 86.6405 52.2988 86.5667 52.9002C86.5242 53.3002 86.2723 53.6412 85.4438 53.6184C84.9031 53.5565 84.6416 53.3173 84.6585 52.9785C84.709 52.4554 84.9617 51.5251 85.0852 50.1628ZM92.6315 43.8019C93.1441 42.8745 93.4713 41.831 93.8941 41.8481C94.466 41.9506 94.8638 42.6816 94.8542 43.056C94.8229 43.2795 94.4956 44.1179 94.0681 44.8418C93.6735 45.3955 92.8882 45.9293 92.6051 45.9243C92.204 45.8774 91.8591 45.6304 91.8799 45.1976C91.9361 44.7663 92.4406 44.1222 92.6315 43.8019ZM93.9614 51.6532C93.9117 52.4554 94.2791 52.8988 94.5221 52.9372C94.7684 52.9508 95.1004 52.7956 95.5921 52.4376C95.8913 52.2141 96.3036 51.8262 96.7672 51.5201C97.0648 51.3351 97.2277 51.2461 97.4563 51.2646C97.8742 51.3123 98.0298 51.4924 98.0105 51.7999C97.9167 52.3621 96.7664 52.9536 96.0838 53.3045C95.7157 53.496 94.3023 54.2575 93.8612 54.2561C92.7125 54.1066 92.2914 52.8205 92.3556 51.7927C92.3572 51.787 92.3572 51.7821 92.3572 51.7778C92.251 51.8052 92.1395 51.8124 92.0299 51.7991C91.8751 51.7778 91.734 51.5194 91.7436 51.3401C91.7877 50.8853 91.9297 50.797 92.4567 50.6134C92.4679 50.4945 92.4767 50.382 92.4863 50.2625C92.7013 48.1742 93.6943 46.567 94.1892 46.5521C96.071 46.7984 97.1595 48.2909 97.1531 48.9863C97.1122 49.4746 97.0985 49.9429 96.4231 50.3137C95.8841 50.5913 94.2895 51.2226 93.9839 51.402L93.9614 51.6532ZM94.0793 50.0667C94.4114 49.9194 95.378 49.5699 95.6603 49.4176C95.6916 48.8489 95.3531 48.3728 94.778 48.3002C94.4772 48.3187 94.1403 49.4667 94.0793 50.0667ZM102.345 54.5237C102.367 54.3095 102.69 51.5458 102.713 50.7984C102.728 50.1208 102.591 49.3073 102.145 49.2176C101.667 49.1998 100.581 50.1614 100.443 51.2817C100.337 52.7878 100.736 53.8511 100.697 54.5558C100.644 54.8632 99.9853 54.9451 99.7399 54.9252C99.2875 54.8711 98.933 54.7067 98.8343 54.5052C98.7092 54.0405 98.657 52.5685 98.6482 52.0525C98.6514 50.4255 98.4429 49.3728 98.4902 48.6667C98.5656 48.0959 99.2233 47.7934 99.4864 47.8112C100.116 47.8938 100.456 48.071 100.487 49.3578C101.03 48.5528 101.943 47.8119 102.839 47.9037C103.464 48.0069 104.019 48.4326 104.204 49.1834C104.832 48.5151 106.007 48.2019 106.898 48.3265C107.758 48.5151 108.128 49.7735 108.137 50.6902C108.133 51.4868 108.111 52.2831 108.071 53.0789C108.037 53.7465 108.086 54.4775 108.055 54.8903C108.01 55.3003 107.743 55.6362 106.921 55.5366C106.103 55.4063 106.024 55.0625 106.052 54.6682C106.129 53.7913 106.331 52.1443 106.401 51.3493C106.459 50.6546 106.52 49.6831 105.971 49.5621C105.412 49.4895 105.106 49.6931 104.421 50.2625C104.411 50.3336 104.396 52.1152 104.365 52.7351C104.329 53.4013 104.33 54.1323 104.298 54.538C104.255 54.943 104.038 55.2682 103.231 55.1971C102.498 55.0988 102.321 54.9102 102.345 54.5237ZM115.556 56.0889C114.767 56.649 113.626 56.7366 112.788 56.6056C111.955 56.454 111.524 56.185 111.533 55.6376C111.626 54.6789 112.368 54.0134 113.363 53.4604C114.167 52.9678 115.061 52.5458 115.301 52.4226C115.45 52.35 115.599 52.3166 115.722 52.3201C115.673 51.7757 115.489 51.1778 114.954 51.0546C114.464 50.9792 113.789 51.2262 113.482 51.4426C113.422 51.4874 113.192 51.6974 113.017 51.6774C112.722 51.6169 112.298 51.2853 112.316 50.8525C112.321 50.7566 112.353 50.6632 112.407 50.5802C112.462 50.4973 112.538 50.4274 112.63 50.3763C113.174 50.1116 114.801 49.7642 115.433 49.8639C115.97 49.9749 116.918 50.2767 117.4 52.7451C117.615 53.7536 117.524 55.1145 117.499 55.4091C117.471 55.7173 117.347 56.5529 117.063 57.1074C116.96 57.2796 116.457 57.2654 116.264 57.2327C115.97 57.1736 115.449 57.007 115.467 56.5302C115.498 56.3807 115.526 56.2383 115.556 56.0889ZM113.784 54.5508C113.46 54.8739 113.4 55.0533 113.377 55.3095C113.364 55.5358 113.508 55.681 113.77 55.7309C114.557 55.8412 115.055 55.3565 115.23 55.2846C115.485 55.2063 115.723 55.138 115.685 55.1686C115.726 54.6768 115.779 54.0568 115.781 53.4369C115.271 53.6404 114.315 54.0518 113.784 54.5508ZM119.683 46.6902C120.078 46.8083 120.582 47.1329 120.589 47.5258C120.567 47.9343 120.41 48.6838 120.321 49.6881C120.269 50.5244 120.54 53.36 120.532 54.2611C120.534 55.4554 120.874 57.0668 120.855 57.528C120.8 57.9857 120.444 58.1231 119.904 58.0184C119.402 57.9074 118.829 57.6704 118.804 57.2561C118.804 56.7665 118.669 55.3052 118.679 53.881C118.675 52.4547 118.289 49.9109 118.427 47.9706C118.549 46.7521 118.989 46.5115 119.683 46.6902ZM122.968 47.6354C123.361 47.7585 123.868 48.0774 123.876 48.4461C123.858 48.829 123.702 49.5287 123.617 50.4874C123.571 51.286 123.845 54.0575 123.837 54.9543C123.84 56.143 124.179 57.7857 124.156 58.2576C124.102 58.7252 123.747 58.8626 123.207 58.7473C122.707 58.6263 122.132 58.3743 122.109 57.9501C122.109 57.4483 121.979 55.9608 121.987 54.5444C121.983 53.1266 121.589 50.6383 121.72 48.8041C121.837 47.6532 122.275 47.4468 122.968 47.6354ZM76.1456 51.4084C76.1031 51.9878 76.2098 52.2789 76.8082 52.2974C77.4258 52.2903 77.9752 51.987 78.2857 51.8525C78.572 51.7095 79.0693 51.1315 79.5642 51.1173C80.0575 51.1379 80.3166 51.3927 80.3086 51.6397C80.1297 52.5621 77.6215 53.2696 76.3125 53.3038C74.5189 53.2404 74.2574 52.4596 74.3104 51.6447C74.6898 48.587 77.8196 46.0574 78.4758 45.9813C78.933 45.9976 79.229 46.2041 79.1889 46.8574C79.1431 47.3436 78.9995 47.8105 78.5167 47.918C77.1098 48.2653 76.2699 50.2938 76.1456 51.4084Z" fill="white"/>
<path fill-rule="evenodd" clip-rule="evenodd" d="M131.189 57.6099C131.061 57.4768 130.973 57.3401 130.826 57.2348C131.072 56.9195 131.181 56.6199 131.219 56.1693C131.235 55.9764 131.268 55.6504 131.306 55.2732C131.387 54.4946 131.494 53.4298 131.563 52.4276C131.627 51.4881 131.751 50.6447 131.823 50.1415C131.857 49.9073 131.879 49.7657 131.887 49.6625C131.986 48.4347 131.01 47.4425 129.617 47.3535C129.032 47.3158 128.411 47.5151 127.911 47.8994C127.413 48.2817 127.104 48.7891 127.063 49.2916C127.045 49.5237 127.046 50.0162 127.05 50.866C127.055 51.6853 127.06 52.7045 127.03 53.0888C126.991 53.5721 126.952 54.4789 126.92 55.2077C126.908 55.5372 126.892 55.8665 126.873 56.1956C126.845 56.5359 126.889 56.7843 127.115 57.0832C126.803 57.2387 126.538 57.459 126.344 57.7252C126.149 57.9914 126.03 58.2954 125.997 58.6113C125.936 59.1508 126.102 59.6405 126.478 60.0277C126.963 60.5295 127.731 60.7993 128.824 60.8512C130.229 60.9181 131.719 60.3907 131.848 59.2526C131.904 58.7558 131.657 58.0932 131.189 57.6099Z" fill="black"/>
<path fill-rule="evenodd" clip-rule="evenodd" d="M129.529 48.4625C130.278 48.5101 130.683 49.0126 130.637 49.582C130.617 49.8347 130.405 50.9977 130.313 52.3593C130.211 53.8469 130.017 55.4882 129.968 56.0882C129.933 56.5159 129.709 56.8718 129.156 56.8618C128.371 56.8476 128.133 56.3679 128.163 56.0042C128.191 55.6561 128.219 53.943 128.282 53.1679C128.343 52.4091 128.278 49.8297 128.315 49.3707C128.351 48.9443 128.976 48.4276 129.529 48.4625ZM129.02 57.6903C129.873 57.738 130.569 58.6846 130.476 59.1103C130.402 59.4491 129.687 59.6839 128.939 59.6491C127.924 59.6007 127.394 59.3081 127.459 58.7323C127.507 58.311 128.424 57.6569 129.02 57.6903Z" fill="white"/>
<path fill-rule="evenodd" clip-rule="evenodd" d="M132.696 42.7513H135.099V43.0638H134.1V45.3756H133.695V43.0638H132.696V42.7513ZM135.454 45.3756V42.7506H136.028L136.879 44.9699L137.722 42.7506H138.29V45.3756H137.909V43.8261L137.913 43.5606C137.916 43.4367 137.917 43.3036 137.917 43.1613L137.073 45.3748H136.677L135.827 43.1613V43.2417C135.827 43.3065 135.829 43.4047 135.832 43.5357C135.835 43.6666 135.837 43.7641 135.837 43.8254V45.3748H135.454V45.3756ZM132.709 58.1843H134.629V58.4348H133.831V60.2847H133.507V58.4348H132.709V58.1843ZM134.914 60.2847V58.185H135.372L136.053 59.9601L136.728 58.185H137.182V60.2847H136.878V59.0455C136.878 59.0021 136.878 58.9316 136.881 58.832C136.883 58.733 136.884 58.627 136.884 58.5138L136.209 60.2847H135.891L135.213 58.5138V58.5779C135.213 58.6291 135.213 58.7081 135.216 58.8128C135.219 58.9181 135.221 58.9964 135.221 59.0455V60.2847H134.914Z" fill="black"/>
</svg>
